<?xml version="1.0" encoding="UTF-8"?>
<!DOCTYPE svg PUBLIC "-//W3C//DTD SVG 1.1//EN" "http://www.w3.org/Graphics/SVG/1.1/DTD/svg11.dtd">
<!-- Creator: CorelDRAW -->
<svg xmlns="http://www.w3.org/2000/svg" xml:space="preserve" width="300px" height="59px" version="1.1" style="shape-rendering:geometricPrecision; text-rendering:geometricPrecision; image-rendering:optimizeQuality; fill-rule:evenodd; clip-rule:evenodd"
viewBox="0 0 300 58.59"
 xmlns:xlink="http://www.w3.org/1999/xlink"
 xmlns:xodm="http://www.corel.com/coreldraw/odm/2003">
 <defs>
  <style type="text/css">
   <![CDATA[
    .fil0 {fill:white;fill-rule:nonzero}
   ]]>
  </style>
 </defs>
 <g id="Camada_x0020_1">
  <metadata id="CorelCorpID_0Corel-Layer"/>
  <g id="_1401561703904">
   <path class="fil0" d="M84.912 54.185c-3.736,0 -6.142,-1.424 -6.49,-3.83l-1.867 0c0.442,3.482 3.608,5.54 8.389,5.54 4.4,0 7.787,-2.058 7.787,-6.205 0,-3.039 -1.678,-4.812 -5.508,-5.666l-3.388 -0.729c-3.102,-0.728 -4.843,-1.899 -4.843,-4.241 0,-2.786 2.216,-4.116 5.477,-4.116 3.387,0 5.318,1.361 5.698,3.387l1.835 0c-0.443,-3.07 -3.07,-5.096 -7.502,-5.096 -4.432,0 -7.407,2.089 -7.407,5.888 0,3.324 2.247,5.033 6.046,5.888l3.387 0.76c2.976,0.665 4.305,1.994 4.305,4.02 0,2.849 -2.469,4.4 -5.919,4.4z"/>
   <polygon id="_1" class="fil0" points="114.9,55.641 114.9,53.901 101.572,53.901 101.572,45.321 114.045,45.321 114.045,43.612 101.572,43.612 101.572,35.223 114.804,35.223 114.804,33.482 99.704,33.482 99.704,55.641 "/>
   <path id="_2" class="fil0" d="M124.057 47.126l6.363 0 6.933 8.515 2.184 0 -6.964 -8.547c4.305,-0.316 6.806,-2.912 6.806,-6.838 0,-4.21 -2.754,-6.774 -7.661,-6.774l-9.528 0 0 22.159 1.867 0 0 -8.515zm0 -1.709l0 -10.194 7.345 0c3.989,0 6.046,1.773 6.046,5.097 0,3.324 -2.089,5.097 -6.046,5.097l-7.345 0z"/>
   <polygon id="_3" class="fil0" points="148.347,33.482 146.48,33.482 146.48,55.641 148.347,55.641 "/>
   <path id="_4" class="fil0" d="M166.875 54.122c-5.508,0 -9.37,-4.084 -9.37,-9.56 0,-5.445 3.957,-9.56 9.466,-9.56 4.241,0 7.312,2.406 8.103,5.318l1.963 0c-1.013,-4.116 -4.97,-7.123 -10.066,-7.123 -6.585,0 -11.428,5.065 -11.428,11.365 0,6.331 4.748,11.365 11.332,11.365 6.332,0 10.827,-4.496 10.827,-10.954 0,-0.316 0,-0.633 -0.032,-1.045l-10.636 0 0 1.71 8.737 0c-0.127,4.78 -3.641,8.484 -8.896,8.484z"/>
   <path id="_5" class="fil0" d="M186.48 47.126l6.363 0 6.933 8.515 2.184 0 -6.964 -8.547c4.305,-0.316 6.806,-2.912 6.806,-6.838 0,-4.21 -2.754,-6.774 -7.661,-6.774l-9.529 0 0 22.159 1.868 0 0 -8.515zm0 -1.709l0 -10.194 7.345 0c3.988,0 6.046,1.773 6.046,5.097 0,3.324 -2.09,5.097 -6.046,5.097l-7.345 0z"/>
   <path id="_6" class="fil0" d="M225.585 55.641l1.899 0 -9.908 -22.286 -1.488 0 -9.908 22.286 1.867 0 2.786 -6.331 11.966 0 2.786 6.331zm-8.769 -19.816l5.192 11.744 -10.384 0 5.192 -11.744z"/>
   <polygon id="_7" class="fil0" points="235.312,55.641 235.312,45.765 247.373,45.765 247.373,44.024 235.312,44.024 235.312,35.223 248.26,35.223 248.26,33.482 233.445,33.482 233.445,55.641 "/>
   <polygon id="_8" class="fil0" points="257.101,33.482 255.234,33.482 255.234,55.641 257.101,55.641 "/>
   <path id="_9" class="fil0" d="M282.657 55.641l1.9 0 -9.909 -22.286 -1.487 0 -9.909 22.286 1.868 0 2.785 -6.331 11.967 0 2.785 6.331zm-8.768 -19.816l5.191 11.744 -10.383 0 5.192 -11.744z"/>
   <path class="fil0" d="M78.71 18.443l6.92 0 7.54 9.261 2.376 0 -7.575 -9.295c4.682,-0.344 7.402,-3.167 7.402,-7.437 0,-4.578 -2.995,-7.367 -8.331,-7.367l-10.363 0 0 24.099 2.031 0 0 -9.261zm0 -1.859l0 -11.086 7.987 0c4.338,0 6.576,1.928 6.576,5.543 0,3.615 -2.272,5.543 -6.576,5.543l-7.987 0z"/>
   <path id="_1_0" class="fil0" d="M121.662 27.704l2.065 0 -10.776 -24.237 -1.618 0 -10.775 24.237 2.031 0 3.03 -6.885 13.013 0 3.03 6.885zm-9.537 -21.551l5.647 12.772 -11.293 0 5.646 -12.772z"/>
   <polygon id="_2_1" class="fil0" points="132.837,3.605 130.806,3.605 130.806,27.704 132.837,27.704 "/>
   <polygon id="_3_2" class="fil0" points="153.996,22.953 155.546,22.953 165.185,7.289 165.185,27.704 167.217,27.704 167.217,3.536 165.289,3.536 154.857,20.681 144.391,3.536 142.394,3.536 142.394,27.704 144.391,27.704 144.391,7.289 "/>
   <path id="_4_3" class="fil0" d="M186.241 28.014c5.749,0 9.915,-3.511 9.915,-9.984l0 -14.425 -2.031 0 0 14.081c0,5.543 -3.133,8.4 -7.85,8.4 -4.716,0 -7.849,-2.857 -7.849,-8.4l0 -14.081 -2.066 0 0 14.425c0,6.473 4.166,9.984 9.881,9.984z"/>
   <polygon id="_5_4" class="fil0" points="205.3,3.536 205.3,27.704 207.297,27.704 207.297,6.807 223.512,27.773 225.337,27.773 225.337,3.605 223.34,3.605 223.34,24.503 207.125,3.536 "/>
   <path id="_6_5" class="fil0" d="M255.344 15.586c0,-6.954 -5.13,-11.981 -12.773,-11.981l-7.884 0 0 24.099 7.816 0c7.711,0 12.841,-5.095 12.841,-12.118zm-18.625 10.19l0 -20.243 5.852 0c6.714,0 10.638,4.166 10.638,10.053 0,5.99 -3.924,10.19 -10.706,10.19l-5.784 0z"/>
   <path id="_7_6" class="fil0" d="M274.403 3.295c-6.885,0 -12.325,5.474 -12.325,12.36 0,6.885 5.44,12.359 12.325,12.359 6.886,0 12.325,-5.474 12.325,-12.359 0,-6.886 -5.439,-12.36 -12.325,-12.36zm0 22.757c-5.715,0 -10.19,-4.441 -10.19,-10.397 0,-5.956 4.475,-10.398 10.19,-10.398 5.715,0 10.19,4.442 10.19,10.398 0,5.956 -4.475,10.397 -10.19,10.397z"/>
   <polygon class="fil0" points="25.872,56.705 13.271,56.705 13.271,3.295 66.695,3.295 66.695,46.499 56.407,46.499 66.368,56.556 51.059,56.556 28.893,33.912 54.094,33.912 54.094,15.882 25.872,15.882 "/>
  </g>
 </g>
</svg>
