<?xml version="1.0" encoding="UTF-8"?>
<!DOCTYPE svg PUBLIC "-//W3C//DTD SVG 1.1//EN" "http://www.w3.org/Graphics/SVG/1.1/DTD/svg11.dtd">
<!-- Creator: CorelDRAW -->
<svg xmlns="http://www.w3.org/2000/svg" xml:space="preserve" width="1000px" height="1000px" version="1.1" style="shape-rendering:geometricPrecision; text-rendering:geometricPrecision; image-rendering:optimizeQuality; fill-rule:evenodd; clip-rule:evenodd"
viewBox="0 0 1000 1000"
 xmlns:xlink="http://www.w3.org/1999/xlink"
 xmlns:xodm="http://www.corel.com/coreldraw/odm/2003">
 <defs>
  <style type="text/css">
   <![CDATA[
    .fil0 {fill:#FFFFFF10;fill-rule:nonzero}
   ]]>
  </style>
   <mask id="id0">
  <radialGradient id="id1" gradientUnits="userSpaceOnUse" cx="-0.157" cy="0.771" r="0" fx="-0.157" fy="0.771">
   <stop offset="0" style="stop-opacity:0; stop-color:white"/>
   <stop offset="1" style="stop-opacity:1; stop-color:white"/>
  </radialGradient>
    <rect style="fill:url(#id1)" x="-0.157" y="0.771" width="1000.001" height="1000.001"/>
   </mask>
 </defs>
 <g id="Camada_x0020_1">
  <metadata id="CorelCorpID_0Corel-Layer"/>
  <path class="fil0" style="mask:url(#id0)" d="M871.281 71.839l-121.765 -71.068 75.098 0 65.749 38.374 -19.082 32.694zm-793.258 928.933c7.606,-6.894 14.576,-15.883 20.908,-26.971l3.52 -6.164 -29.448 -16.817 -6.648 11.641c-10.43,18.262 -23.297,29.531 -38.605,33.806 -8.813,2.461 -18.115,2.485 -27.907,0.073l0 4.432 78.18 0zm-78.18 -99.994l0 -9.434 2.619 1.496 0.782 -1.37c-1.14,-0.652 -2.274,-1.284 -3.401,-1.899l0 -32.738 124.998 71.385 -18.773 32.872 -98.957 -56.514c-2.449,-1.399 -4.871,-2.664 -7.268,-3.798zm249.97 99.994l-57.663 0 0.102 -0.179c-26.709,-15.252 -49.64,-20.553 -68.795,-15.902 -10.47,2.542 -20.084,7.902 -28.844,16.081l94.771 0 -73.246 -41.83 14.862 -26.024 118.813 67.854zm372.907 0l-28.683 0 7.288 -12.488 21.395 12.488zm-278.763 0l3.733 -6.396 10.959 6.396 -14.692 0zm35.276 0c-2.43,-4.219 -4.293,-8.529 -5.584,-12.933 -5.549,-18.914 -1.5,-40.064 12.148,-63.448l3.577 -6.131 29.289 17.095 -6.758 11.578c-10.6,18.163 -13.926,34.941 -9.975,50.336 0.304,1.182 0.649,2.349 1.036,3.503l-23.733 0zm205.912 0l-23.916 0 -57.084 -33.317 0.796 -1.363c18.403,10.742 31.761,22.302 40.078,34.68l-22.769 0c-5.27,-12.154 -15.466,-22.646 -30.593,-31.475l-98.421 -57.443 19.081 -32.693 181.857 106.14 -9.029 15.471zm-287.986 0l-153.582 -89.638 15.106 -25.882 74.923 43.728 -0.796 1.363c-26.563,-15.504 -42.619,-32.714 -48.169,-51.627 -5.549,-18.915 -1.5,-40.064 12.148,-63.448l3.578 -6.131 29.288 17.094 -6.758 11.578c-10.6,18.164 -13.926,34.942 -9.974,50.337 3.952,15.393 15.008,28.391 33.171,38.992l98.421 57.442 -9.45 16.192 -37.906 0zm-73.849 -230.735l181.857 106.14 -15.106 25.883 -74.923 -43.729 0.795 -1.362c26.564,15.504 42.62,32.713 48.169,51.627 5.549,18.914 1.5,40.064 -12.148,63.448l-3.577 6.131 -29.289 -17.094 6.758 -11.579c10.6,-18.163 13.926,-34.941 9.975,-50.336 -3.952,-15.394 -15.009,-28.392 -33.172,-38.992l-98.421 -57.443 19.082 -32.694zm-86.884 138.114l-136.583 -79.716 0 -34.699 44.755 26.121 -0.795 1.362c-21.602,-12.608 -36.255,-26.344 -43.96,-41.207l0 -57.978c2.132,-5.177 4.777,-10.473 7.939,-15.89l3.577 -6.13 29.289 17.094 -6.758 11.578c-10.6,18.163 -13.926,34.941 -9.975,50.336 3.952,15.394 15.009,28.391 33.172,38.992l98.421 57.443 -19.082 32.694zm-102.124 -247.237l181.858 106.14 -15.106 25.882 -74.923 -43.728 0.795 -1.363c26.563,15.504 42.619,32.714 48.169,51.627 5.549,18.914 1.5,40.064 -12.148,63.448l-3.578 6.131 -29.288 -17.094 6.758 -11.579c10.6,-18.163 13.925,-34.941 9.975,-50.335 -3.952,-15.394 -15.009,-28.392 -33.172,-38.993l-98.421 -57.442 19.081 -32.694zm-34.459 15.777l0 -34.699 27.309 15.938 -15.106 25.883 -12.203 -7.122zm0 -53.481l35.613 20.339 14.862 -26.024 -50.475 -28.825 0 34.51zm0 -35.335c16.051,5.688 30.437,6.99 43.156,3.902 19.155,-4.652 35.446,-18.734 48.874,-42.245l3.52 -6.164 -29.448 -16.817 -6.648 11.641c-10.43,18.262 -23.297,29.531 -38.605,33.807 -6.669,1.862 -13.619,2.329 -20.849,1.4l0 14.476zm0 -107.686l0 -43.594 117.94 67.354 -18.773 32.872 -98.957 -56.514 -0.21 -0.118zm41.772 168.06l182.849 104.423 14.861 -26.023 -75.331 -43.021 -0.782 1.37c26.708,15.253 49.64,20.553 68.794,15.902 19.155,-4.652 35.447,-18.733 48.875,-42.245l3.52 -6.164 -29.448 -16.816 -6.649 11.641c-10.429,18.262 -23.297,29.531 -38.605,33.806 -15.307,4.275 -32.092,1.198 -50.354,-9.231l-98.957 -56.514 -18.773 32.872zm265.175 -35.176l-182.848 -104.423 -14.862 26.023 75.332 43.021 0.782 -1.37c-26.709,-15.253 -49.641,-20.553 -68.795,-15.902 -19.155,4.652 -35.447,18.733 -48.874,42.245l-3.52 6.163 29.448 16.817 6.648 -11.641c10.43,-18.262 23.297,-29.531 38.605,-33.806 15.307,-4.275 32.092,-1.198 50.354,9.231l98.958 56.514 18.772 -32.872zm-76.167 144.3l182.848 104.423 14.862 -26.024 -75.332 -43.021 -0.782 1.37c26.709,15.253 49.64,20.553 68.794,15.902 19.156,-4.651 35.447,-18.733 48.874,-42.244l3.521 -6.164 -29.448 -16.817 -6.648 11.642c-10.43,18.261 -23.298,29.53 -38.605,33.806 -15.307,4.274 -32.092,1.198 -50.354,-9.231l-98.958 -56.514 -18.772 32.872zm265.175 -35.177l-182.849 -104.423 -14.861 26.024 75.331 43.02 0.782 -1.369c-26.709,-15.253 -49.64,-20.553 -68.794,-15.903 -19.156,4.652 -35.447,18.733 -48.875,42.245l-3.52 6.164 29.448 16.817 6.648 -11.641c10.43,-18.262 23.298,-29.531 38.606,-33.807 15.307,-4.274 32.091,-1.198 50.354,9.231l98.957 56.514 18.773 -32.872zm-76.168 144.3l182.848 104.423 14.862 -26.023 -75.331 -43.021 -0.783 1.369c26.709,15.253 49.641,20.554 68.795,15.903 19.155,-4.652 35.447,-18.733 48.874,-42.245l3.52 -6.164 -29.448 -16.817 -6.648 11.642c-10.43,18.262 -23.297,29.531 -38.605,33.806 -15.307,4.275 -32.092,1.198 -50.354,-9.231l-98.957 -56.514 -18.773 32.872zm265.175 -35.176l-182.848 -104.423 -14.862 26.023 75.331 43.021 0.782 -1.37c-26.708,-15.252 -49.64,-20.553 -68.794,-15.902 -19.155,4.652 -35.447,18.733 -48.874,42.244l-3.52 6.164 29.448 16.817 6.648 -11.641c10.43,-18.262 23.297,-29.531 38.605,-33.806 15.307,-4.275 32.092,-1.198 50.354,9.231l98.957 56.514 18.773 -32.872zm-76.168 144.3l44.042 25.152 76.42 0c-0.907,-0.485 -1.817,-0.989 -2.731,-1.511l-98.958 -56.513 -18.773 32.872zm229.53 25.152c3.397,-4.416 6.643,-9.33 9.736,-14.746l3.52 -6.164 -29.448 -16.817 -6.649 11.642c-6.532,11.439 -14.022,20.133 -22.469,26.085l45.31 0zm35.645 -60.329l-182.848 -104.423 -14.861 26.024 75.33 43.021 0.783 -1.37c-26.709,-15.253 -49.64,-20.553 -68.795,-15.903 -19.154,4.652 -35.446,18.734 -48.874,42.245l-3.52 6.164 29.448 16.817 6.649 -11.642c10.429,-18.261 23.297,-29.53 38.605,-33.806 15.307,-4.274 32.092,-1.198 50.353,9.231l98.958 56.514 18.772 -32.872zm103.566 60.329l-60.43 0 -51.838 -29.605 14.862 -26.023 97.406 55.628zm-61.923 0l-54.028 0c3.556,-1.653 7.223,-2.939 11.002,-3.856 12.685,-3.08 27.027,-1.794 43.026,3.856zm84.389 -14.79l-107.296 -62.623 15.106 -25.882 74.923 43.728 -0.795 1.363c-26.564,-15.504 -42.62,-32.713 -48.169,-51.627 -5.549,-18.915 -1.5,-40.064 12.148,-63.449l3.578 -6.13 29.287 17.094 -6.757 11.579c-10.601,18.163 -13.926,34.941 -9.975,50.336 3.952,15.393 15.009,28.391 33.172,38.992l4.778 2.789 0 43.83zm0 -187.633l0 43.831 -46.644 -27.224 19.081 -32.694 27.563 16.087zm-114.446 122.027l-181.857 -106.14 15.106 -25.883 74.923 43.729 -0.796 1.362c-26.563,-15.504 -42.619,-32.713 -48.169,-51.626 -5.549,-18.915 -1.5,-40.065 12.148,-63.449l3.578 -6.13 29.288 17.094 -6.757 11.578c-10.601,18.164 -13.926,34.942 -9.975,50.336 3.952,15.394 15.008,28.391 33.171,38.993l98.421 57.442 -19.081 32.694zm-102.124 -247.237l181.857 106.14 -15.106 25.882 -74.923 -43.728 0.796 -1.362c26.563,15.504 42.619,32.713 48.168,51.626 5.549,18.915 1.5,40.065 -12.148,63.449l-3.578 6.13 -29.288 -17.094 6.758 -11.579c10.601,-18.163 13.926,-34.941 9.975,-50.335 -3.952,-15.394 -15.009,-28.392 -33.171,-38.993l-98.422 -57.443 19.082 -32.693zm-86.884 138.113l-181.857 -106.14 15.106 -25.882 74.923 43.728 -0.795 1.363c-26.564,-15.504 -42.62,-32.714 -48.169,-51.627 -5.549,-18.914 -1.5,-40.064 12.148,-63.448l3.578 -6.131 29.288 17.094 -6.758 11.579c-10.6,18.163 -13.926,34.941 -9.974,50.336 3.951,15.393 15.008,28.392 33.171,38.992l98.421 57.443 -19.082 32.693zm-102.123 -247.236l181.857 106.14 -15.106 25.882 -74.923 -43.728 0.795 -1.363c26.564,15.504 42.62,32.713 48.169,51.626 5.549,18.915 1.5,40.065 -12.148,63.449l-3.578 6.131 -29.288 -17.095 6.758 -11.578c10.6,-18.163 13.926,-34.941 9.974,-50.336 -3.951,-15.393 -15.008,-28.391 -33.171,-38.992l-98.421 -57.442 19.082 -32.694zm-86.884 138.113l-181.857 -106.14 15.106 -25.883 74.923 43.729 -0.796 1.362c-26.563,-15.504 -42.619,-32.713 -48.169,-51.626 -5.548,-18.915 -1.5,-40.065 12.148,-63.449l3.578 -6.13 29.289 17.094 -6.758 11.578c-10.601,18.164 -13.926,34.942 -9.975,50.336 3.952,15.394 15.009,28.392 33.171,38.993l98.422 57.442 -19.082 32.694zm-102.124 -247.237l181.857 106.14 -15.106 25.882 -74.923 -43.728 0.795 -1.362c26.564,15.504 42.62,32.713 48.17,51.626 5.549,18.915 1.499,40.064 -12.148,63.449l-3.578 6.13 -29.288 -17.094 6.757 -11.578c10.601,-18.164 13.926,-34.942 9.975,-50.336 -3.951,-15.394 -15.008,-28.392 -33.172,-38.993l-98.421 -57.442 19.082 -32.694zm-86.884 138.114l-181.856 -106.141 15.106 -25.882 74.922 43.728 -0.794 1.363c-26.564,-15.504 -42.62,-32.713 -48.17,-51.627 -5.549,-18.914 -1.5,-40.064 12.148,-63.448l3.578 -6.131 29.288 17.095 -6.758 11.578c-10.6,18.163 -13.926,34.941 -9.975,50.336 3.952,15.393 15.009,28.391 33.172,38.992l98.421 57.443 -19.082 32.694zm-102.123 -247.238l181.857 106.141 -15.106 25.882 -74.923 -43.728 0.795 -1.363c26.563,15.504 42.619,32.713 48.169,51.627 5.549,18.914 1.5,40.064 -12.148,63.448l-3.578 6.131 -29.288 -17.095 6.758 -11.578c10.6,-18.163 13.926,-34.941 9.975,-50.336 -3.952,-15.393 -15.009,-28.391 -33.171,-38.992l-98.422 -57.443 19.082 -32.694zm-86.884 138.114l-129.525 -75.596 0 -34.699 37.697 22.001 -0.795 1.362c-16.217,-9.465 -28.516,-19.565 -36.902,-30.301l0 -83.242c0.29,-0.51 0.582,-1.02 0.881,-1.532l3.578 -6.13 29.287 17.094 -6.757 11.578c-10.6,18.164 -13.926,34.942 -9.975,50.336 3.952,15.394 15.009,28.392 33.171,38.993l98.421 57.442 -19.081 32.694zm-102.123 -247.237l181.856 106.14 -15.106 25.883 -74.922 -43.729 0.794 -1.362c26.564,15.504 42.62,32.713 48.17,51.626 5.549,18.915 1.5,40.065 -12.148,63.449l-3.578 6.13 -29.288 -17.094 6.758 -11.578c10.6,-18.163 13.925,-34.942 9.974,-50.336 -3.951,-15.394 -15.008,-28.392 -33.171,-38.993l-98.421 -57.442 19.082 -32.694zm-27.402 19.896l0 -34.698 20.251 11.819 -15.106 25.882 -5.145 -3.003zm0 -53.568l28.555 16.307 14.862 -26.024 -43.417 -24.794 0 34.511zm0 -37.117c13.239,3.73 25.272,4.28 36.098,1.652 19.154,-4.652 35.446,-18.733 48.874,-42.245l3.52 -6.164 -29.448 -16.817 -6.649 11.642c-10.429,18.262 -23.297,29.531 -38.605,33.806 -4.47,1.248 -9.067,1.869 -13.79,1.863l0 16.263zm0 -105.906l0 -43.593 110.882 63.323 -18.773 32.872 -92.109 -52.602zm34.714 164.03l182.848 104.423 14.862 -26.023 -75.331 -43.021 -0.782 1.37c26.708,15.252 49.64,20.553 68.794,15.902 19.155,-4.651 35.447,-18.733 48.874,-42.244l3.52 -6.164 -29.448 -16.817 -6.648 11.641c-10.43,18.262 -23.297,29.531 -38.605,33.806 -15.307,4.275 -32.092,1.199 -50.354,-9.23l-98.957 -56.515 -18.773 32.872zm265.175 -35.176l-182.848 -104.423 -14.862 26.023 75.331 43.021 0.783 -1.369c-26.71,-15.253 -49.641,-20.554 -68.795,-15.903 -19.155,4.652 -35.447,18.733 -48.874,42.245l-3.52 6.164 29.448 16.817 6.648 -11.642c10.43,-18.261 23.297,-29.531 38.605,-33.806 15.307,-4.275 32.092,-1.198 50.354,9.231l98.957 56.514 18.773 -32.872zm-76.168 144.3l182.849 104.423 14.861 -26.024 -75.331 -43.02 -0.782 1.369c26.709,15.253 49.64,20.553 68.794,15.903 19.156,-4.652 35.447,-18.733 48.874,-42.245l3.521 -6.164 -29.448 -16.817 -6.649 11.642c-10.429,18.262 -23.297,29.53 -38.605,33.806 -15.307,4.274 -32.091,1.198 -50.354,-9.231l-98.957 -56.514 -18.773 32.872zm265.175 -35.177l-182.848 -104.423 -14.862 26.024 75.332 43.021 0.782 -1.37c-26.709,-15.252 -49.64,-20.553 -68.794,-15.902 -19.156,4.652 -35.447,18.733 -48.874,42.244l-3.521 6.164 29.448 16.817 6.648 -11.641c10.43,-18.262 23.297,-29.531 38.605,-33.806 15.307,-4.275 32.092,-1.198 50.355,9.231l98.957 56.513 18.772 -32.872zm-76.167 144.301l182.848 104.422 14.862 -26.023 -75.332 -43.021 -0.781 1.37c26.708,15.253 49.64,20.553 68.794,15.902 19.155,-4.651 35.447,-18.733 48.874,-42.245l3.52 -6.163 -29.448 -16.817 -6.648 11.641c-10.43,18.262 -23.297,29.531 -38.605,33.806 -15.307,4.275 -32.092,1.198 -50.354,-9.231l-98.958 -56.513 -18.772 32.872zm265.175 -35.177l-182.849 -104.423 -14.861 26.023 75.331 43.022 0.782 -1.37c-26.708,-15.253 -49.64,-20.554 -68.794,-15.903 -19.155,4.652 -35.447,18.733 -48.874,42.245l-3.52 6.164 29.447 16.817 6.649 -11.642c10.429,-18.262 23.297,-29.531 38.605,-33.806 15.307,-4.275 32.092,-1.198 50.354,9.231l98.957 56.514 18.773 -32.872zm-76.168 144.3l182.849 104.423 14.861 -26.024 -75.331 -43.02 -0.782 1.369c26.708,15.253 49.64,20.553 68.794,15.903 19.155,-4.652 35.447,-18.733 48.874,-42.245l3.52 -6.164 -29.447 -16.817 -6.649 11.641c-10.429,18.263 -23.297,29.531 -38.604,33.807 -15.308,4.274 -32.093,1.198 -50.355,-9.231l-98.957 -56.514 -18.773 32.872zm265.175 -35.177l-182.848 -104.422 -14.862 26.023 75.331 43.021 0.783 -1.37c-26.709,-15.253 -49.641,-20.553 -68.795,-15.903 -19.155,4.653 -35.446,18.734 -48.874,42.246l-3.52 6.163 29.448 16.817 6.648 -11.641c10.43,-18.262 23.297,-29.531 38.605,-33.807 15.307,-4.274 32.092,-1.198 50.354,9.231l98.958 56.514 18.772 -32.872zm-76.167 144.301l182.848 104.422 14.862 -26.023 -75.331 -43.021 -0.783 1.37c26.709,15.253 49.641,20.553 68.795,15.902 6.632,-1.611 12.92,-4.352 18.866,-8.224l0 -49.858 -2.568 4.498c-10.43,18.262 -23.298,29.531 -38.606,33.806 -15.307,4.275 -32.091,1.198 -50.354,-9.23l-98.957 -56.515 -18.772 32.873zm209.257 -67.111l0 43.593 -61.813 -35.301c-18.261,-10.429 -35.046,-13.506 -50.354,-9.231 -15.307,4.275 -28.175,15.544 -38.604,33.806l-6.648 11.642 -29.449 -16.817 3.52 -6.164c13.428,-23.512 29.72,-37.594 48.875,-42.245 19.154,-4.65 42.086,0.65 68.794,15.902l-0.782 1.37 -75.331 -43.021 14.861 -26.023 126.931 72.489zm-20.25 176.234l20.25 11.565 0 -43.594 -1.477 -0.843 -18.773 32.872zm20.25 -203.765l-114.354 -66.742 15.106 -25.883 74.923 43.729 -0.795 1.362c-26.564,-15.504 -42.62,-32.713 -48.17,-51.627 -5.549,-18.914 -1.499,-40.064 12.149,-63.448l3.577 -6.131 29.288 17.095 -6.757 11.578c-10.6,18.163 -13.926,34.941 -9.975,50.336 3.952,15.394 15.008,28.391 33.171,38.993l11.837 6.908 0 43.83zm0 -187.633l0 43.83 -53.702 -31.343 19.081 -32.693 34.621 20.206zm-121.505 117.907l-181.857 -106.14 15.107 -25.882 74.923 43.728 -0.796 1.363c-26.563,-15.504 -42.619,-32.713 -48.169,-51.627 -5.549,-18.915 -1.5,-40.064 12.148,-63.449l3.578 -6.13 29.288 17.094 -6.758 11.578c-10.6,18.164 -13.926,34.942 -9.974,50.337 3.952,15.393 15.008,28.391 33.171,38.992l98.421 57.442 -19.082 32.694zm-102.123 -247.237l181.857 106.14 -15.106 25.882 -74.923 -43.728 0.795 -1.362c26.564,15.504 42.62,32.713 48.169,51.626 5.549,18.915 1.5,40.065 -12.148,63.449l-3.578 6.13 -29.288 -17.094 6.758 -11.578c10.6,-18.163 13.926,-34.941 9.975,-50.336 -3.952,-15.394 -15.009,-28.392 -33.172,-38.992l-98.421 -57.443 19.082 -32.694zm-86.884 138.114l-181.857 -106.14 15.106 -25.883 74.923 43.729 -0.795 1.362c-26.564,-15.504 -42.62,-32.713 -48.17,-51.626 -5.548,-18.915 -1.499,-40.065 12.148,-63.449l3.578 -6.13 29.289 17.094 -6.758 11.578c-10.601,18.163 -13.926,34.941 -9.975,50.336 3.952,15.394 15.009,28.391 33.172,38.992l98.421 57.443 -19.082 32.694zm-102.124 -247.237l181.858 106.14 -15.106 25.882 -74.924 -43.728 0.796 -1.362c26.563,15.503 42.619,32.713 48.169,51.626 5.549,18.915 1.5,40.065 -12.148,63.448l-3.578 6.131 -29.288 -17.094 6.757 -11.579c10.601,-18.163 13.926,-34.941 9.975,-50.335 -3.951,-15.394 -15.008,-28.392 -33.171,-38.993l-98.421 -57.443 19.081 -32.693zm-86.884 138.113l-181.856 -106.14 15.106 -25.882 74.923 43.728 -0.795 1.362c-26.564,-15.503 -42.62,-32.713 -48.17,-51.626 -5.549,-18.915 -1.5,-40.065 12.148,-63.448l3.578 -6.131 29.288 17.094 -6.757 11.579c-10.601,18.163 -13.926,34.941 -9.975,50.336 3.952,15.393 15.008,28.391 33.171,38.992l98.421 57.442 -19.082 32.694zm-102.123 -247.236l181.857 106.139 -15.106 25.883 -74.923 -43.729 0.795 -1.362c26.564,15.504 42.62,32.713 48.17,51.626 5.549,18.915 1.499,40.065 -12.148,63.449l-3.579 6.13 -29.287 -17.094 6.757 -11.578c10.601,-18.163 13.926,-34.941 9.975,-50.336 -3.952,-15.394 -15.008,-28.392 -33.171,-38.992l-98.421 -57.443 19.081 -32.693zm-86.883 138.112l-181.858 -106.139 15.106 -25.883 74.923 43.729 -0.795 1.362c-26.564,-15.504 -42.619,-32.713 -48.169,-51.626 -2.719,-9.266 -3.132,-19.069 -1.243,-29.408l33.682 0c-5.875,13.799 -7.261,26.745 -4.158,38.837 3.952,15.394 15.009,28.392 33.172,38.992l98.421 57.443 -19.081 32.693zm-41.402 -167.965l75.098 0 46.037 26.869 -15.107 25.882 -74.923 -43.728 0.796 -1.362c26.563,15.503 42.619,32.713 48.169,51.626 5.549,18.915 1.5,40.064 -12.148,63.448l-3.578 6.131 -29.288 -17.094 6.758 -11.578c10.6,-18.164 13.926,-34.942 9.975,-50.337 -3.952,-15.393 -15.009,-28.391 -33.172,-38.992l-18.617 -10.865zm-147.606 58.842l-100.819 -58.842 75.097 0 44.803 26.149 -19.081 32.693zm-4.8 -58.842l38.291 0c-1.949,4.45 -4.271,8.987 -6.97,13.612l-3.578 6.13 -29.288 -17.094 1.545 -2.648zm259.979 0l21.866 12.487 7.131 -12.487 -28.997 0zm28.025 17.188l182.848 104.423 14.862 -26.024 -75.332 -43.021 -0.782 1.37c26.709,15.253 49.64,20.553 68.795,15.903 19.155,-4.652 35.446,-18.734 48.874,-42.245l3.52 -6.164 -29.448 -16.817 -6.649 11.641c-10.429,18.262 -23.296,29.531 -38.604,33.807 -15.307,4.274 -32.092,1.198 -50.354,-9.231l-71.495 -40.83 -36.42 0 -9.815 17.188zm220.341 -17.188l34.561 0 -8.5 14.883 -26.061 -14.883zm-31.334 126.311l182.849 104.423 14.861 -26.023 -75.331 -43.022 -0.782 1.37c26.708,15.253 49.64,20.554 68.794,15.903 19.155,-4.652 35.447,-18.733 48.874,-42.245l3.52 -6.163 -29.447 -16.818 -6.649 11.642c-10.429,18.262 -23.297,29.531 -38.605,33.806 -15.307,4.275 -32.092,1.198 -50.354,-9.23l-98.957 -56.515 -18.773 32.872zm74.738 -126.311l30.856 0 159.581 91.135 -18.773 32.872 -98.957 -56.514c-18.262,-10.429 -35.047,-13.506 -50.354,-9.231 -15.308,4.275 -28.175,15.544 -38.605,33.806l-6.648 11.641 -29.448 -16.817 3.52 -6.163c13.427,-23.512 29.719,-37.594 48.874,-42.245 19.154,-4.651 42.086,0.649 68.794,15.902l-0.782 1.37 -75.331 -43.021 7.273 -12.735zm114.27 235.435l182.848 104.423 14.862 -26.024 -75.332 -43.021 -0.782 1.37c26.709,15.253 49.64,20.553 68.794,15.903 9.32,-2.264 17.962,-6.76 25.925,-13.487l0 -50.038 -2.978 -1.701 -6.648 11.642c-10.43,18.261 -23.298,29.53 -38.605,33.806 -15.308,4.274 -32.093,1.198 -50.355,-9.232l-98.957 -56.513 -18.772 32.872zm216.315 -63.08l0 43.593 -68.871 -39.332c-18.262,-10.429 -35.046,-13.505 -50.354,-9.231 -15.307,4.276 -28.175,15.545 -38.605,33.806l-6.648 11.642 -29.448 -16.817 3.52 -6.164c13.428,-23.511 29.719,-37.593 48.874,-42.245 19.154,-4.65 42.086,0.65 68.795,15.903l-0.782 1.37 -75.331 -43.021 14.861 -26.024 133.989 76.52zm-27.308 172.203l27.308 15.596 0 -43.593 -8.535 -4.875 -18.773 32.872zm27.308 -47.978l0 11.368 -4.918 -2.809 3.52 -6.164c0.463,-0.81 0.929,-1.608 1.398,-2.395zm0 -151.667l-121.412 -70.862 15.106 -25.883 74.923 43.728 -0.796 1.363c-26.563,-15.504 -42.619,-32.713 -48.169,-51.626 -3.769,-12.847 -3.108,-26.725 1.979,-41.633l36.702 0 -0.424 0.726c-10.601,18.163 -13.926,34.942 -9.975,50.336 3.951,15.393 15.008,28.391 33.171,38.992l18.895 11.028 0 43.831zm-1.902 -144.913l1.902 0 0 1.11 -1.902 -1.11zm-124.397 0l35.699 0c-2.412,8.286 -6.225,16.898 -11.442,25.837l-3.578 6.131 -29.288 -17.094 6.758 -11.579c0.644,-1.104 1.26,-2.202 1.851,-3.295z"/>
 </g>
</svg>
