<?xml version="1.0" encoding="UTF-8"?>
<!DOCTYPE svg PUBLIC "-//W3C//DTD SVG 1.1//EN" "http://www.w3.org/Graphics/SVG/1.1/DTD/svg11.dtd">
<!-- Creator: CorelDRAW -->
<svg xmlns="http://www.w3.org/2000/svg" xml:space="preserve" width="50px" height="50px" version="1.1" style="shape-rendering:geometricPrecision; text-rendering:geometricPrecision; image-rendering:optimizeQuality; fill-rule:evenodd; clip-rule:evenodd"
viewBox="0 0 50 50"
 xmlns:xlink="http://www.w3.org/1999/xlink"
 xmlns:xodm="http://www.corel.com/coreldraw/odm/2003">
 <defs>
  <style type="text/css">
   <![CDATA[
    .fil0 {fill:white;fill-rule:nonzero}
   ]]>
  </style>
 </defs>
 <g id="Camada_x0020_1">
  <metadata id="CorelCorpID_0Corel-Layer"/>
  <path class="fil0" d="M19.74 13.331l18.032 0c1.314,0 2.507,0.536 3.371,1.4 0.863,0.863 1.4,2.057 1.4,3.371l0 22.128c0,1.314 -0.537,2.507 -1.4,3.37 -0.864,0.864 -2.057,1.4 -3.371,1.4l-18.032 0c-1.314,0 -2.507,-0.536 -3.371,-1.4 -0.863,-0.863 -1.399,-2.056 -1.399,-3.37l0 -22.128c0,-1.314 0.536,-2.507 1.399,-3.371 0.864,-0.864 2.057,-1.4 3.371,-1.4zm-7.373 -8.331l18.033 0c0.214,0 0.425,0.012 0.632,0.036l3.052 0c1.123,0 2.043,0.919 2.043,2.043l0 0c0,0.728 -0.386,1.37 -0.964,1.732 0.016,0.093 0.029,0.187 0.039,0.283l-0.779 0c-0.11,0.018 -0.224,0.028 -0.339,0.028l-10.412 0 0 -0.087c-4.797,0.016 -10.362,0.061 -11.305,0.061 -0.454,0 -0.813,0.36 -0.813,0.814l0 22.128c0,0.107 -0.004,0.192 -0.01,0.259l0 2.589c0,1.124 -0.919,2.044 -2.043,2.044l0 0c-1.124,0 -2.044,-0.92 -2.044,-2.044l0 -2.848 0 -7.564 0 -14.564c0,-2.694 2.217,-4.91 4.91,-4.91zm25.405 12.148l-18.032 0c-0.26,0 -0.498,0.108 -0.672,0.282 -0.174,0.173 -0.281,0.411 -0.281,0.672l0 22.128c0,0.26 0.107,0.498 0.281,0.672 0.174,0.173 0.412,0.281 0.672,0.281l18.032 0c0.26,0 0.498,-0.108 0.672,-0.281 0.174,-0.174 0.282,-0.412 0.282,-0.672l0 -22.128c0,-0.261 -0.108,-0.499 -0.282,-0.672 -0.174,-0.174 -0.412,-0.282 -0.672,-0.282z"/>
 </g>
</svg>
