<?xml version="1.0" encoding="UTF-8"?>
<!DOCTYPE svg PUBLIC "-//W3C//DTD SVG 1.1//EN" "http://www.w3.org/Graphics/SVG/1.1/DTD/svg11.dtd">
<!-- Creator: CorelDRAW -->
<svg xmlns="http://www.w3.org/2000/svg" xml:space="preserve" width="50px" height="50px" version="1.1" style="shape-rendering:geometricPrecision; text-rendering:geometricPrecision; image-rendering:optimizeQuality; fill-rule:evenodd; clip-rule:evenodd"
viewBox="0 0 50 50"
 xmlns:xlink="http://www.w3.org/1999/xlink"
 xmlns:xodm="http://www.corel.com/coreldraw/odm/2003">
 <defs>
  <style type="text/css">
   <![CDATA[
    .fil0 {fill:white;fill-rule:nonzero}
   ]]>
  </style>
 </defs>
 <g id="Camada_x0020_1">
  <metadata id="CorelCorpID_0Corel-Layer"/>
  <path class="fil0" d="M37.006 18.407c-0.763,0 -1.411,0.648 -1.411,1.41l0 16.769c0,1.372 -1.143,2.516 -2.515,2.516l-19.628 0c-1.372,0 -2.515,-1.144 -2.515,-2.516l0 -19.628c0,-1.372 1.143,-2.515 2.515,-2.515l16.426 0c0.763,0 1.411,-0.648 1.411,-1.41 0,-0.763 -0.648,-1.411 -1.411,-1.411l-16.426 0.001c-2.934,0 -5.335,2.401 -5.335,5.335l0 19.628c0,2.934 2.401,5.336 5.335,5.336l19.628 0c2.935,0 5.336,-2.402 5.336,-5.336l0 -16.769c-0.001,-0.762 -0.61,-1.41 -1.41,-1.41z"/>
  <path class="fil0" d="M32.127 8.078c-0.762,0 -1.41,0.648 -1.41,1.411 0,0.762 0.648,1.41 1.41,1.41l4.802 -0.001 -13.148 13.149c-0.534,0.534 -0.534,1.448 0,1.982 0.266,0.267 0.647,0.419 0.99,0.419 0.344,0 0.725,-0.152 0.991,-0.419l13.301 -13.301 0 4.802c0,0.762 0.648,1.41 1.411,1.41 0.762,0 1.41,-0.648 1.41,-1.41l0 -9.452 -9.757 0z"/>
  <path class="fil0" d="M13.033 28.354l2.935 0c0.419,0 0.8,0.038 1.143,0.114 0.381,0.076 0.686,0.191 0.953,0.381 0.267,0.191 0.495,0.42 0.648,0.725 0.152,0.304 0.229,0.685 0.229,1.143 0,0.457 -0.076,0.839 -0.229,1.143 -0.153,0.305 -0.343,0.572 -0.61,0.762 -0.267,0.191 -0.572,0.306 -0.915,0.382 -0.343,0.076 -0.724,0.114 -1.143,0.114l-1.258 0 0 3.049 -1.715 0 0 -7.813 -0.038 0zm1.715 3.316l1.143 0c0.153,0 0.305,0 0.458,-0.039 0.152,-0.038 0.267,-0.076 0.381,-0.152 0.114,-0.076 0.19,-0.152 0.267,-0.305 0.076,-0.114 0.114,-0.267 0.114,-0.457 0,-0.191 -0.038,-0.343 -0.152,-0.496 -0.076,-0.114 -0.229,-0.228 -0.343,-0.267 -0.153,-0.076 -0.305,-0.114 -0.496,-0.114 -0.19,0 -0.343,-0.038 -0.495,-0.038l-0.877 0 0 1.868z"/>
  <path class="fil0" d="M20.007 28.354l2.592 0c0.61,0 1.22,0.076 1.791,0.229 0.572,0.152 1.067,0.381 1.487,0.686 0.419,0.305 0.762,0.724 0.991,1.219 0.266,0.496 0.381,1.106 0.381,1.83 0,0.648 -0.115,1.181 -0.343,1.676 -0.229,0.496 -0.572,0.877 -0.953,1.22 -0.419,0.343 -0.877,0.572 -1.41,0.762 -0.534,0.153 -1.106,0.267 -1.677,0.267l-2.82 0 0 -7.889 -0.039 0zm1.715 6.25l0.915 0c0.382,0 0.763,-0.038 1.106,-0.114 0.342,-0.076 0.648,-0.229 0.876,-0.419 0.267,-0.191 0.457,-0.419 0.61,-0.763 0.152,-0.304 0.228,-0.686 0.228,-1.143 0,-0.381 -0.076,-0.724 -0.228,-0.991 -0.153,-0.267 -0.343,-0.533 -0.572,-0.686 -0.229,-0.191 -0.533,-0.305 -0.876,-0.419 -0.305,-0.076 -0.648,-0.114 -1.029,-0.114l-1.03 0 0 4.649z"/>
  <polygon class="fil0" points="28.507,28.354 33.766,28.354 33.766,29.955 30.222,29.955 30.222,31.556 33.499,31.555 33.499,33.156 30.222,33.156 30.222,36.205 28.507,36.205 "/>
 </g>
</svg>
