<?xml version="1.0" encoding="UTF-8"?>
<!DOCTYPE svg PUBLIC "-//W3C//DTD SVG 1.1//EN" "http://www.w3.org/Graphics/SVG/1.1/DTD/svg11.dtd">
<!-- Creator: CorelDRAW -->
<svg xmlns="http://www.w3.org/2000/svg" xml:space="preserve" width="300px" height="84px" version="1.1" style="shape-rendering:geometricPrecision; text-rendering:geometricPrecision; image-rendering:optimizeQuality; fill-rule:evenodd; clip-rule:evenodd"
viewBox="0 0 300 83.89"
 xmlns:xlink="http://www.w3.org/1999/xlink"
 xmlns:xodm="http://www.corel.com/coreldraw/odm/2003">
 <defs>
  <style type="text/css">
   <![CDATA[
    .fil0 {fill:#201E1E}
    .fil1 {fill:#201E1E;fill-rule:nonzero}
   ]]>
  </style>
 </defs>
 <g id="Camada_x0020_1">
  <metadata id="CorelCorpID_0Corel-Layer"/>
  <g id="_2313491592528">
   <path class="fil0" d="M37.34 2.48c-5.78,0 -18.54,4 -25.83,10.71 -7.4,6.82 -11.51,18.36 -11.51,24.48l0 4.03 37.34 0c0,-5.78 3.99,-18.55 10.71,-25.83 6.82,-7.4 18.36,-11.51 24.48,-11.51l4.02 0 0 37.34 -39.21 0c-5.78,0 -18.54,3.99 -25.83,10.71 -7.4,6.82 -11.51,18.36 -11.51,24.48l0 4.02 37.34 0 0 -39.21 0 -39.22z"/>
   <path class="fil0" d="M56.81 44.26c-2.52,0 -8.1,1.75 -11.29,4.69 -3.23,2.98 -5.03,8.02 -5.03,10.69l0 1.76 16.32 0c0,-2.52 1.75,-8.1 4.68,-11.28 2.98,-3.24 8.03,-5.03 10.7,-5.03l1.76 0 0 16.31 -17.14 0c-2.52,0 -8.1,1.75 -11.29,4.68 -3.23,2.99 -5.03,8.03 -5.03,10.7l0 1.76 16.32 0 0 -17.14 0 -17.14z"/>
   <path class="fil1" d="M94.19 14.94c0.58,-1.56 1.55,-2.73 2.9,-3.51 1.35,-0.78 2.86,-1.17 4.52,-1.17l0 7.03c-1.92,-0.23 -3.64,0.16 -5.15,1.17 -1.52,1.01 -2.27,2.68 -2.27,5.03l0 11.66 -6.3 0 0 -24.41 6.3 0 0 4.2z"/>
   <path id="_1" class="fil1" d="M122.89 10.74l6.3 0 0 24.41 -6.3 0 0 -2.88c-1.89,2.38 -4.54,3.57 -7.95,3.57 -3.26,0 -6.05,-1.25 -8.38,-3.74 -2.32,-2.49 -3.49,-5.54 -3.49,-9.15 0,-3.61 1.17,-6.66 3.49,-9.15 2.33,-2.49 5.12,-3.74 8.38,-3.74 3.41,0 6.06,1.19 7.95,3.57l0 -2.89zm-11.62 17.16c1.27,1.29 2.88,1.93 4.84,1.93 1.95,0 3.57,-0.64 4.85,-1.93 1.29,-1.28 1.93,-2.93 1.93,-4.95 0,-2.02 -0.64,-3.67 -1.93,-4.96 -1.28,-1.28 -2.9,-1.92 -4.85,-1.92 -1.96,0 -3.57,0.64 -4.84,1.92 -1.26,1.29 -1.9,2.94 -1.9,4.96 0,2.02 0.64,3.67 1.9,4.95z"/>
   <path id="_2" class="fil1" d="M138.03 7.82c-1.05,0 -1.95,-0.39 -2.71,-1.15 -0.77,-0.77 -1.15,-1.67 -1.15,-2.71 0,-1.04 0.38,-1.95 1.15,-2.73 0.76,-0.78 1.66,-1.18 2.71,-1.18 1.07,0 1.99,0.4 2.75,1.18 0.77,0.78 1.15,1.69 1.15,2.73 0,1.04 -0.38,1.94 -1.15,2.71 -0.76,0.76 -1.68,1.15 -2.75,1.15zm-3.13 27.33l0 -24.41 6.3 0 0 24.41 -6.3 0z"/>
   <path id="_3" class="fil1" d="M173.96 10.06c2.79,0 5.03,0.91 6.71,2.73 1.67,1.83 2.51,4.27 2.51,7.33l0 15.03 -6.3 0 0 -14.59c0,-1.47 -0.35,-2.61 -1.07,-3.42 -0.72,-0.81 -1.72,-1.22 -3.03,-1.22 -1.43,0 -2.54,0.47 -3.34,1.42 -0.8,0.94 -1.2,2.31 -1.2,4.1l0 13.71 -6.29 0 0 -14.59c0,-1.47 -0.36,-2.61 -1.08,-3.42 -0.71,-0.81 -1.72,-1.22 -3.03,-1.22 -1.39,0 -2.51,0.47 -3.34,1.42 -0.83,0.94 -1.24,2.31 -1.24,4.1l0 13.71 -6.3 0 0 -24.41 6.3 0 0 2.59c1.46,-2.18 3.72,-3.27 6.78,-3.27 3,0 5.21,1.17 6.64,3.52 1.63,-2.35 4.05,-3.52 7.28,-3.52z"/>
   <path id="_4" class="fil1" d="M204.66 10.74l6.3 0 0 24.41 -6.3 0 0 -2.73c-1.53,2.28 -3.95,3.42 -7.27,3.42 -2.67,0 -4.88,-0.9 -6.62,-2.69 -1.74,-1.79 -2.61,-4.26 -2.61,-7.42l0 -14.99 6.3 0 0 14.21c0,1.63 0.44,2.87 1.32,3.74 0.87,0.86 2.05,1.29 3.51,1.29 1.63,0 2.93,-0.51 3.91,-1.51 0.97,-1.01 1.46,-2.53 1.46,-4.54l0 -13.19z"/>
   <path id="_5" class="fil1" d="M230.29 10.06c2.67,0 4.87,0.9 6.61,2.69 1.74,1.79 2.62,4.26 2.62,7.42l0 14.98 -6.3 0 0 -14.2c0,-1.63 -0.44,-2.87 -1.32,-3.74 -0.88,-0.86 -2.05,-1.29 -3.51,-1.29 -1.63,0 -2.93,0.5 -3.91,1.51 -0.98,1.01 -1.46,2.52 -1.46,4.54l0 13.18 -6.3 0 0 -24.41 6.3 0 0 2.74c1.52,-2.28 3.95,-3.42 7.27,-3.42z"/>
   <path id="_6" class="fil1" d="M263.39 0.98l6.29 0 0 34.17 -6.29 0 0 -2.88c-1.86,2.38 -4.49,3.57 -7.91,3.57 -3.29,0 -6.1,-1.25 -8.42,-3.74 -2.33,-2.49 -3.49,-5.54 -3.49,-9.15 0,-3.61 1.16,-6.66 3.49,-9.15 2.32,-2.49 5.13,-3.74 8.42,-3.74 3.42,0 6.05,1.19 7.91,3.57l0 -12.65zm-11.6 26.92c1.29,1.29 2.91,1.93 4.86,1.93 1.95,0 3.56,-0.64 4.83,-1.93 1.27,-1.28 1.91,-2.93 1.91,-4.95 0,-2.02 -0.64,-3.67 -1.91,-4.96 -1.27,-1.28 -2.88,-1.92 -4.83,-1.92 -1.95,0 -3.57,0.64 -4.86,1.92 -1.28,1.29 -1.93,2.94 -1.93,4.96 0,2.02 0.65,3.67 1.93,4.95z"/>
   <path id="_7" class="fil1" d="M296.24 32.1c-2.51,2.49 -5.56,3.74 -9.18,3.74 -3.61,0 -6.66,-1.25 -9.15,-3.74 -2.49,-2.49 -3.74,-5.54 -3.74,-9.15 0,-3.61 1.25,-6.66 3.74,-9.15 2.49,-2.49 5.54,-3.74 9.15,-3.74 3.62,0 6.67,1.25 9.18,3.74 2.51,2.49 3.76,5.54 3.76,9.15 0,3.61 -1.25,6.66 -3.76,9.15zm-13.89 -4.32c1.25,1.27 2.82,1.91 4.71,1.91 1.89,0 3.47,-0.64 4.74,-1.91 1.27,-1.27 1.9,-2.88 1.9,-4.83 0,-1.95 -0.63,-3.56 -1.9,-4.83 -1.27,-1.27 -2.85,-1.91 -4.74,-1.91 -1.89,0 -3.46,0.64 -4.71,1.91 -1.25,1.27 -1.88,2.88 -1.88,4.83 0,1.95 0.63,3.56 1.88,4.83z"/>
   <path class="fil1" d="M91.5 56.02c0,0.66 0.43,1.18 1.29,1.59 0.87,0.41 1.92,0.77 3.15,1.07 1.24,0.31 2.48,0.7 3.71,1.18 1.24,0.47 2.29,1.26 3.15,2.36 0.86,1.11 1.29,2.49 1.29,4.15 0,2.51 -0.93,4.44 -2.8,5.79 -1.87,1.35 -4.21,2.02 -7.01,2.02 -5.01,0 -8.43,-1.93 -10.25,-5.81l5.47 -3.07c0.72,2.11 2.31,3.17 4.78,3.17 2.25,0 3.37,-0.7 3.37,-2.1 0,-0.65 -0.43,-1.18 -1.29,-1.58 -0.86,-0.41 -1.91,-0.78 -3.15,-1.1 -1.24,-0.33 -2.47,-0.73 -3.71,-1.22 -1.24,-0.49 -2.29,-1.26 -3.15,-2.32 -0.86,-1.06 -1.29,-2.38 -1.29,-3.98 0,-2.41 0.88,-4.3 2.66,-5.69 1.77,-1.38 3.98,-2.07 6.61,-2.07 1.99,0 3.79,0.45 5.42,1.34 1.63,0.9 2.91,2.17 3.86,3.83l-5.37 2.93c-0.78,-1.66 -2.09,-2.49 -3.91,-2.49 -0.81,0 -1.49,0.18 -2.02,0.54 -0.54,0.36 -0.81,0.85 -0.81,1.46z"/>
   <path id="_1_0" class="fil1" d="M113.13 63.88c0.84,3.06 3.14,4.59 6.88,4.59 2.41,0 4.23,-0.81 5.47,-2.44l5.07 2.93c-2.4,3.48 -5.95,5.22 -10.64,5.22 -4.03,0 -7.27,-1.22 -9.71,-3.66 -2.44,-2.44 -3.66,-5.51 -3.66,-9.22 0,-3.68 1.2,-6.75 3.61,-9.21 2.41,-2.45 5.5,-3.68 9.27,-3.68 3.58,0 6.54,1.24 8.86,3.71 2.33,2.47 3.49,5.53 3.49,9.18 0,0.81 -0.08,1.67 -0.24,2.58l-18.4 0zm-0.1 -4.88l12.45 0c-0.36,-1.66 -1.1,-2.89 -2.22,-3.71 -1.13,-0.81 -2.4,-1.22 -3.84,-1.22 -1.69,0 -3.09,0.43 -4.19,1.3 -1.11,0.86 -1.84,2.07 -2.2,3.63z"/>
   <path id="_2_1" class="fil1" d="M142.46 53.29c0.59,-1.56 1.56,-2.73 2.91,-3.51 1.35,-0.79 2.85,-1.18 4.52,-1.18l0 7.03c-1.93,-0.22 -3.64,0.17 -5.16,1.18 -1.51,1 -2.27,2.68 -2.27,5.02l0 11.67 -6.29 0 0 -24.41 6.29 0 0 4.2z"/>
   <path id="_3_2" class="fil1" d="M156.67 46.16c-1.04,0 -1.94,-0.38 -2.71,-1.14 -0.76,-0.77 -1.15,-1.67 -1.15,-2.71 0,-1.04 0.39,-1.96 1.15,-2.74 0.77,-0.78 1.67,-1.17 2.71,-1.17 1.07,0 1.99,0.39 2.76,1.17 0.76,0.78 1.15,1.7 1.15,2.74 0,1.04 -0.39,1.94 -1.15,2.71 -0.77,0.76 -1.69,1.14 -2.76,1.14zm-3.12 27.34l0 -24.41 6.29 0 0 24.41 -6.29 0z"/>
   <path id="_4_3" class="fil1" d="M184.3 49.09l6.15 0 0 23.24c0,3.77 -1.24,6.65 -3.73,8.64 -2.49,1.98 -5.49,2.98 -9.01,2.98 -2.63,0 -4.95,-0.51 -6.96,-1.52 -2,-1.01 -3.54,-2.49 -4.61,-4.44l5.37 -3.07c1.24,2.27 3.37,3.41 6.4,3.41 1.98,0 3.54,-0.52 4.68,-1.56 1.14,-1.04 1.71,-2.52 1.71,-4.44l0 -2.64c-1.85,2.48 -4.46,3.71 -7.81,3.71 -3.45,0 -6.34,-1.21 -8.66,-3.63 -2.33,-2.43 -3.49,-5.38 -3.49,-8.86 0,-3.45 1.17,-6.4 3.51,-8.84 2.34,-2.44 5.22,-3.66 8.64,-3.66 3.35,0 5.96,1.24 7.81,3.71l0 -3.03zm-11.74 16.62c1.29,1.26 2.92,1.88 4.91,1.88 1.98,0 3.62,-0.62 4.9,-1.88 1.29,-1.25 1.93,-2.85 1.93,-4.8 0,-1.92 -0.64,-3.51 -1.93,-4.76 -1.28,-1.26 -2.92,-1.88 -4.9,-1.88 -1.99,0 -3.62,0.62 -4.91,1.88 -1.28,1.25 -1.93,2.84 -1.93,4.76 0,1.95 0.65,3.55 1.93,4.8z"/>
   <path id="_5_4" class="fil1" d="M202.46 53.29c0.59,-1.56 1.55,-2.73 2.9,-3.51 1.36,-0.79 2.86,-1.18 4.52,-1.18l0 7.03c-1.92,-0.22 -3.64,0.17 -5.15,1.18 -1.51,1 -2.27,2.68 -2.27,5.02l0 11.67 -6.3 0 0 -24.41 6.3 0 0 4.2z"/>
   <path id="_6_5" class="fil1" d="M231.16 49.09l6.3 0 0 24.41 -6.3 0 0 -2.88c-1.88,2.38 -4.53,3.56 -7.95,3.56 -3.26,0 -6.05,-1.24 -8.37,-3.73 -2.33,-2.49 -3.49,-5.54 -3.49,-9.15 0,-3.62 1.16,-6.67 3.49,-9.16 2.32,-2.49 5.11,-3.73 8.37,-3.73 3.42,0 6.07,1.19 7.95,3.56l0 -2.88zm-11.61 17.16c1.27,1.29 2.88,1.93 4.83,1.93 1.95,0 3.57,-0.64 4.86,-1.93 1.28,-1.28 1.92,-2.94 1.92,-4.95 0,-2.02 -0.64,-3.67 -1.92,-4.96 -1.29,-1.28 -2.91,-1.93 -4.86,-1.93 -1.95,0 -3.56,0.65 -4.83,1.93 -1.27,1.29 -1.91,2.94 -1.91,4.96 0,2.01 0.64,3.67 1.91,4.95z"/>
   <path id="_7_6" class="fil1" d="M264.6 49.09l0 24.41 -6.29 0 0 -18.35 -7.18 0 0 18.35 -6.3 0 0 -18.35 -3.51 0 0 -6.06 3.51 0 0 -0.24c0,-6.8 3.83,-10.2 11.48,-10.2 1.72,0 3.62,0.22 5.71,0.68l0 5.76c-2.18,-0.26 -4.09,-0.39 -5.71,-0.39 -1.76,0 -3.06,0.3 -3.91,0.9 -0.85,0.6 -1.27,1.69 -1.27,3.25l0 0.24 13.47 0z"/>
   <path id="_8" class="fil1" d="M288.91 49.09l6.3 0 0 24.41 -6.3 0 0 -2.88c-1.88,2.38 -4.53,3.56 -7.95,3.56 -3.26,0 -6.05,-1.24 -8.37,-3.73 -2.33,-2.49 -3.49,-5.54 -3.49,-9.15 0,-3.62 1.16,-6.67 3.49,-9.16 2.32,-2.49 5.11,-3.73 8.37,-3.73 3.42,0 6.07,1.19 7.95,3.56l0 -2.88zm-11.61 17.16c1.27,1.29 2.88,1.93 4.83,1.93 1.95,0 3.57,-0.64 4.86,-1.93 1.28,-1.28 1.92,-2.94 1.92,-4.95 0,-2.02 -0.64,-3.67 -1.92,-4.96 -1.29,-1.28 -2.91,-1.93 -4.86,-1.93 -1.95,0 -3.56,0.65 -4.83,1.93 -1.27,1.29 -1.91,2.94 -1.91,4.96 0,2.01 0.64,3.67 1.91,4.95z"/>
  </g>
 </g>
</svg>
