<?xml version="1.0" encoding="UTF-8"?>
<!DOCTYPE svg PUBLIC "-//W3C//DTD SVG 1.1//EN" "http://www.w3.org/Graphics/SVG/1.1/DTD/svg11.dtd">
<!-- Creator: CorelDRAW -->
<svg xmlns="http://www.w3.org/2000/svg" xml:space="preserve" width="300px" height="90px" version="1.1" style="shape-rendering:geometricPrecision; text-rendering:geometricPrecision; image-rendering:optimizeQuality; fill-rule:evenodd; clip-rule:evenodd"
viewBox="0 0 300 90"
 xmlns:xlink="http://www.w3.org/1999/xlink"
 xmlns:xodm="http://www.corel.com/coreldraw/odm/2003">
 <defs>
  <style type="text/css">
   <![CDATA[
    .fil0 {fill:#E6E6E6}
    .fil1 {fill:#E6E6E6;fill-rule:nonzero}
   ]]>
  </style>
 </defs>
 <g id="Camada_x0020_1">
  <metadata id="CorelCorpID_0Corel-Layer"/>
  <g id="_1531057748896">
   <g>
    <path class="fil0" d="M37.33 5.48c-5.77,0 -18.54,4 -25.82,10.71 -7.4,6.82 -11.51,18.36 -11.51,24.48l0 4.03 37.33 0c0,-5.78 4,-18.55 10.72,-25.83 6.82,-7.4 18.35,-11.51 24.48,-11.51l4.02 0 0 37.34 -39.22 0c-5.77,0 -18.54,3.99 -25.82,10.71 -7.4,6.82 -11.51,18.36 -11.51,24.48l0 4.02 37.33 0 0 -39.21 0 -39.22z"/>
    <path class="fil0" d="M56.81 47.26c-2.53,0 -8.11,1.75 -11.29,4.68 -3.23,2.99 -5.03,8.03 -5.03,10.7l0 1.76 16.32 0c0,-2.52 1.74,-8.1 4.68,-11.28 2.98,-3.24 8.02,-5.03 10.7,-5.03l1.75 0 0 16.31 -17.13 0c-2.53,0 -8.11,1.75 -11.29,4.68 -3.23,2.98 -5.03,8.03 -5.03,10.7l0 1.76 16.32 0 0 -17.14 0 -17.14z"/>
   </g>
   <path class="fil1" d="M94.18 17.94c0.59,-1.56 1.56,-2.73 2.91,-3.51 1.35,-0.78 2.85,-1.17 4.51,-1.17l0 7.03c-1.92,-0.23 -3.63,0.16 -5.15,1.17 -1.51,1.01 -2.27,2.68 -2.27,5.03l0 11.66 -6.29 0 0 -24.41 6.29 0 0 4.2z"/>
   <path id="_1" class="fil1" d="M122.89 13.74l6.3 0 0 24.41 -6.3 0 0 -2.88c-1.89,2.38 -4.54,3.57 -7.96,3.57 -3.25,0 -6.04,-1.25 -8.37,-3.74 -2.33,-2.49 -3.49,-5.54 -3.49,-9.15 0,-3.61 1.16,-6.66 3.49,-9.15 2.33,-2.49 5.12,-3.74 8.37,-3.74 3.42,0 6.07,1.19 7.96,3.56l0 -2.88zm-11.62 17.16c1.27,1.29 2.88,1.93 4.83,1.93 1.95,0 3.57,-0.64 4.86,-1.93 1.29,-1.28 1.93,-2.93 1.93,-4.95 0,-2.02 -0.64,-3.67 -1.93,-4.96 -1.29,-1.28 -2.91,-1.92 -4.86,-1.92 -1.95,0 -3.56,0.64 -4.83,1.92 -1.27,1.29 -1.9,2.94 -1.9,4.96 0,2.02 0.63,3.67 1.9,4.95z"/>
   <path id="_2" class="fil1" d="M138.02 10.82c-1.04,0 -1.94,-0.39 -2.71,-1.15 -0.76,-0.77 -1.15,-1.67 -1.15,-2.71 0,-1.04 0.39,-1.95 1.15,-2.74 0.77,-0.78 1.67,-1.17 2.71,-1.17 1.07,0 1.99,0.39 2.76,1.17 0.76,0.79 1.15,1.7 1.15,2.74 0,1.04 -0.39,1.94 -1.15,2.71 -0.77,0.76 -1.69,1.15 -2.76,1.15zm-3.12 27.33l0 -24.41 6.29 0 0 24.41 -6.29 0z"/>
   <path id="_3" class="fil1" d="M173.95 13.06c2.8,0 5.04,0.91 6.71,2.73 1.68,1.83 2.52,4.27 2.52,7.33l0 15.03 -6.3 0 0 -14.59c0,-1.47 -0.36,-2.61 -1.07,-3.42 -0.72,-0.81 -1.73,-1.22 -3.03,-1.22 -1.43,0 -2.55,0.47 -3.34,1.41 -0.8,0.95 -1.2,2.32 -1.2,4.1l0 13.72 -6.3 0 0 -14.59c0,-1.47 -0.36,-2.61 -1.07,-3.42 -0.72,-0.81 -1.73,-1.22 -3.03,-1.22 -1.4,0 -2.51,0.47 -3.34,1.41 -0.83,0.95 -1.25,2.32 -1.25,4.1l0 13.72 -6.29 0 0 -24.41 6.29 0 0 2.59c1.47,-2.18 3.73,-3.27 6.79,-3.27 2.99,0 5.21,1.17 6.64,3.52 1.62,-2.35 4.05,-3.52 7.27,-3.52z"/>
   <path id="_4" class="fil1" d="M204.66 13.74l6.3 0 0 24.41 -6.3 0 0 -2.73c-1.53,2.28 -3.95,3.42 -7.27,3.42 -2.67,0 -4.88,-0.9 -6.62,-2.69 -1.74,-1.79 -2.61,-4.26 -2.61,-7.42l0 -14.99 6.3 0 0 14.21c0,1.63 0.44,2.87 1.31,3.73 0.88,0.87 2.05,1.3 3.52,1.3 1.63,0 2.93,-0.51 3.9,-1.52 0.98,-1 1.47,-2.52 1.47,-4.54l0 -13.18z"/>
   <path id="_5" class="fil1" d="M230.29 13.06c2.67,0 4.87,0.9 6.61,2.69 1.74,1.79 2.61,4.26 2.61,7.42l0 14.98 -6.29 0 0 -14.2c0,-1.63 -0.44,-2.88 -1.32,-3.74 -0.88,-0.86 -2.05,-1.29 -3.52,-1.29 -1.62,0 -2.92,0.5 -3.9,1.51 -0.98,1.01 -1.46,2.52 -1.46,4.54l0 13.18 -6.3 0 0 -24.41 6.3 0 0 2.74c1.52,-2.28 3.95,-3.42 7.27,-3.42z"/>
   <path id="_6" class="fil1" d="M263.39 3.98l6.29 0 0 34.17 -6.29 0 0 -2.88c-1.86,2.38 -4.5,3.57 -7.91,3.57 -3.29,0 -6.1,-1.25 -8.42,-3.74 -2.33,-2.49 -3.49,-5.54 -3.49,-9.15 0,-3.61 1.16,-6.66 3.49,-9.15 2.32,-2.49 5.13,-3.74 8.42,-3.74 3.41,0 6.05,1.19 7.91,3.56l0 -12.64zm-11.6 26.92c1.29,1.29 2.91,1.93 4.86,1.93 1.95,0 3.56,-0.64 4.83,-1.93 1.27,-1.28 1.91,-2.93 1.91,-4.95 0,-2.02 -0.64,-3.67 -1.91,-4.96 -1.27,-1.28 -2.88,-1.92 -4.83,-1.92 -1.95,0 -3.57,0.64 -4.86,1.92 -1.28,1.29 -1.93,2.94 -1.93,4.96 0,2.02 0.65,3.67 1.93,4.95z"/>
   <path id="_7" class="fil1" d="M296.24 35.1c-2.5,2.49 -5.56,3.74 -9.18,3.74 -3.61,0 -6.66,-1.25 -9.15,-3.74 -2.49,-2.49 -3.74,-5.54 -3.74,-9.15 0,-3.61 1.25,-6.66 3.74,-9.15 2.49,-2.49 5.54,-3.74 9.15,-3.74 3.62,0 6.68,1.25 9.18,3.74 2.51,2.49 3.76,5.54 3.76,9.15 0,3.61 -1.25,6.66 -3.76,9.15zm-13.89 -4.32c1.25,1.27 2.83,1.91 4.71,1.91 1.89,0 3.47,-0.64 4.74,-1.91 1.27,-1.27 1.9,-2.88 1.9,-4.83 0,-1.95 -0.63,-3.57 -1.9,-4.83 -1.27,-1.27 -2.85,-1.91 -4.74,-1.91 -1.88,0 -3.46,0.64 -4.71,1.91 -1.25,1.26 -1.88,2.88 -1.88,4.83 0,1.95 0.63,3.56 1.88,4.83z"/>
   <path class="fil1" d="M91.5 59.02c0,0.65 0.43,1.18 1.29,1.59 0.86,0.41 1.91,0.76 3.15,1.07 1.23,0.31 2.47,0.7 3.71,1.17 1.23,0.48 2.28,1.26 3.15,2.37 0.86,1.11 1.29,2.49 1.29,4.15 0,2.51 -0.94,4.44 -2.81,5.79 -1.87,1.35 -4.2,2.02 -7,2.02 -5.01,0 -8.43,-1.93 -10.25,-5.81l5.47 -3.07c0.71,2.11 2.31,3.17 4.78,3.17 2.24,0 3.37,-0.7 3.37,-2.1 0,-0.65 -0.44,-1.18 -1.3,-1.59 -0.86,-0.4 -1.91,-0.77 -3.14,-1.09 -1.24,-0.33 -2.48,-0.74 -3.71,-1.22 -1.24,-0.49 -2.29,-1.27 -3.15,-2.32 -0.87,-1.06 -1.3,-2.39 -1.3,-3.98 0,-2.41 0.89,-4.31 2.66,-5.69 1.78,-1.38 3.98,-2.07 6.62,-2.07 1.98,0 3.79,0.44 5.42,1.34 1.62,0.89 2.91,2.17 3.85,3.83l-5.37 2.93c-0.78,-1.66 -2.08,-2.49 -3.9,-2.49 -0.82,0 -1.49,0.18 -2.03,0.54 -0.53,0.35 -0.8,0.84 -0.8,1.46z"/>
   <path id="_1_0" class="fil1" d="M113.12 66.88c0.85,3.06 3.14,4.59 6.89,4.59 2.4,0 4.23,-0.81 5.46,-2.44l5.08 2.93c-2.41,3.48 -5.96,5.22 -10.64,5.22 -4.04,0 -7.28,-1.22 -9.72,-3.66 -2.44,-2.44 -3.66,-5.52 -3.66,-9.23 0,-3.67 1.21,-6.74 3.61,-9.2 2.41,-2.46 5.5,-3.68 9.28,-3.68 3.58,0 6.53,1.23 8.86,3.71 2.33,2.47 3.49,5.53 3.49,9.17 0,0.82 -0.08,1.68 -0.24,2.59l-18.41 0zm-0.1 -4.88l12.45 0c-0.35,-1.66 -1.1,-2.9 -2.22,-3.71 -1.12,-0.81 -2.4,-1.22 -3.83,-1.22 -1.69,0 -3.09,0.43 -4.2,1.29 -1.11,0.86 -1.84,2.08 -2.2,3.64z"/>
   <path id="_2_1" class="fil1" d="M142.46 56.29c0.59,-1.57 1.56,-2.74 2.91,-3.52 1.35,-0.78 2.85,-1.17 4.51,-1.17l0 7.03c-1.92,-0.23 -3.63,0.16 -5.15,1.17 -1.51,1.01 -2.27,2.69 -2.27,5.03l0 11.67 -6.3 0 0 -24.41 6.3 0 0 4.2z"/>
   <path id="_3_2" class="fil1" d="M156.67 49.16c-1.04,0 -1.95,-0.38 -2.71,-1.15 -0.77,-0.76 -1.15,-1.67 -1.15,-2.71 0,-1.04 0.38,-1.95 1.15,-2.73 0.76,-0.78 1.67,-1.17 2.71,-1.17 1.07,0 1.99,0.39 2.76,1.17 0.76,0.78 1.14,1.69 1.14,2.73 0,1.04 -0.38,1.95 -1.14,2.71 -0.77,0.77 -1.69,1.15 -2.76,1.15zm-3.13 27.34l0 -24.41 6.3 0 0 24.41 -6.3 0z"/>
   <path id="_4_3" class="fil1" d="M184.3 52.09l6.15 0 0 23.24c0,3.77 -1.24,6.65 -3.73,8.64 -2.49,1.98 -5.5,2.98 -9.01,2.98 -2.64,0 -4.96,-0.51 -6.96,-1.52 -2,-1.01 -3.54,-2.49 -4.61,-4.44l5.37 -3.08c1.24,2.28 3.37,3.42 6.39,3.42 1.99,0 3.55,-0.52 4.69,-1.56 1.14,-1.04 1.71,-2.52 1.71,-4.44l0 -2.64c-1.85,2.47 -4.46,3.71 -7.81,3.71 -3.45,0 -6.34,-1.21 -8.67,-3.64 -2.32,-2.42 -3.49,-5.37 -3.49,-8.86 0,-3.45 1.17,-6.39 3.52,-8.83 2.34,-2.44 5.22,-3.66 8.64,-3.66 3.35,0 5.96,1.23 7.81,3.71l0 -3.03zm-11.74 16.62c1.28,1.25 2.92,1.88 4.91,1.88 1.98,0 3.62,-0.63 4.9,-1.88 1.29,-1.25 1.93,-2.85 1.93,-4.81 0,-1.92 -0.64,-3.5 -1.93,-4.76 -1.28,-1.25 -2.92,-1.88 -4.9,-1.88 -1.99,0 -3.63,0.63 -4.91,1.88 -1.29,1.26 -1.93,2.84 -1.93,4.76 0,1.96 0.64,3.56 1.93,4.81z"/>
   <path id="_5_4" class="fil1" d="M202.46 56.29c0.59,-1.57 1.55,-2.74 2.9,-3.52 1.35,-0.78 2.86,-1.17 4.52,-1.17l0 7.03c-1.92,-0.23 -3.64,0.16 -5.15,1.17 -1.51,1.01 -2.27,2.69 -2.27,5.03l0 11.67 -6.3 0 0 -24.41 6.3 0 0 4.2z"/>
   <path id="_6_5" class="fil1" d="M231.16 52.09l6.3 0 0 24.41 -6.3 0 0 -2.88c-1.88,2.37 -4.54,3.56 -7.95,3.56 -3.26,0 -6.05,-1.24 -8.38,-3.73 -2.32,-2.49 -3.49,-5.54 -3.49,-9.16 0,-3.61 1.17,-6.66 3.49,-9.15 2.33,-2.49 5.12,-3.73 8.38,-3.73 3.41,0 6.07,1.18 7.95,3.56l0 -2.88zm-11.61 17.16c1.27,1.28 2.88,1.93 4.83,1.93 1.95,0 3.57,-0.65 4.86,-1.93 1.28,-1.29 1.92,-2.94 1.92,-4.96 0,-2.01 -0.64,-3.67 -1.92,-4.95 -1.29,-1.29 -2.91,-1.93 -4.86,-1.93 -1.95,0 -3.56,0.64 -4.83,1.93 -1.27,1.28 -1.91,2.94 -1.91,4.95 0,2.02 0.64,3.67 1.91,4.96z"/>
   <path id="_7_6" class="fil1" d="M264.61 52.09l0 24.41 -6.3 0 0 -18.36 -7.18 0 0 18.36 -6.3 0 0 -18.36 -3.51 0 0 -6.05 3.51 0 0 -0.25c0,-6.8 3.83,-10.2 11.48,-10.2 1.72,0 3.63,0.23 5.71,0.69l0 5.76c-2.18,-0.26 -4.09,-0.39 -5.71,-0.39 -1.76,0 -3.06,0.3 -3.91,0.9 -0.85,0.6 -1.27,1.68 -1.27,3.24l0 0.25 13.48 0z"/>
   <path id="_8" class="fil1" d="M288.92 52.09l6.29 0 0 24.41 -6.29 0 0 -2.88c-1.89,2.37 -4.54,3.56 -7.96,3.56 -3.26,0 -6.05,-1.24 -8.37,-3.73 -2.33,-2.49 -3.49,-5.54 -3.49,-9.16 0,-3.61 1.16,-6.66 3.49,-9.15 2.32,-2.49 5.11,-3.73 8.37,-3.73 3.42,0 6.07,1.18 7.96,3.56l0 -2.88zm-11.62 17.16c1.27,1.28 2.88,1.93 4.83,1.93 1.95,0 3.57,-0.65 4.86,-1.93 1.28,-1.29 1.93,-2.94 1.93,-4.96 0,-2.01 -0.65,-3.67 -1.93,-4.95 -1.29,-1.29 -2.91,-1.93 -4.86,-1.93 -1.95,0 -3.56,0.64 -4.83,1.93 -1.27,1.28 -1.91,2.94 -1.91,4.95 0,2.02 0.64,3.67 1.91,4.96z"/>
  </g>
 </g>
</svg>
